<svg xmlns="http://www.w3.org/2000/svg" viewBox="0 0 13 17" width="13" height="17">
	<style>
		tspan { white-space:pre }
		.shp0 { fill: #ffffff } 
	</style>
	<g id="Partners">
		<g id="Partner 2">
			<path id="Shape 155" class="shp0" d="M12.22 14.01L9.15 5.75L9.15 3.31C9.73 3.11 10.15 2.57 10.15 1.93L10.15 1.53C10.15 0.72 9.49 0.07 8.67 0.07L4.3 0.07C3.48 0.07 2.82 0.72 2.82 1.53L2.82 1.93C2.82 2.57 3.23 3.11 3.81 3.31L3.81 5.75L0.75 14C0.57 14.45 0.62 14.96 0.89 15.37C1.17 15.77 1.63 16.02 2.12 16.02L10.84 16.02C11.34 16.02 11.8 15.77 12.07 15.37C12.35 14.96 12.4 14.45 12.22 14.01ZM4.11 12.14C4.11 11.86 4.33 11.64 4.61 11.64C4.89 11.64 5.12 11.86 5.12 12.14C5.12 12.42 4.89 12.64 4.61 12.64C4.33 12.64 4.11 12.42 4.11 12.14ZM7.36 12.57C7.84 12.57 8.23 12.96 8.23 13.44C8.23 13.91 7.84 14.3 7.36 14.3C6.88 14.3 6.49 13.91 6.49 13.44C6.49 12.96 6.88 12.57 7.36 12.57ZM6.62 10.68C6.62 10.34 6.9 10.06 7.25 10.06C7.59 10.06 7.87 10.34 7.87 10.68C7.87 11.03 7.59 11.3 7.25 11.3C6.9 11.3 6.62 11.03 6.62 10.68ZM4.79 5.92L4.79 2.91L4.78 2.43L4.3 2.43C4.02 2.43 3.79 2.2 3.79 1.93L3.79 1.53C3.79 1.26 4.02 1.04 4.3 1.04L8.67 1.04C8.95 1.04 9.17 1.26 9.17 1.53L9.17 1.93C9.17 2.2 8.95 2.43 8.67 2.43L8.18 2.43L8.18 5.92L9.03 8.23C9.02 8.24 9.01 8.25 9 8.26C8.36 8.92 3.69 9 3.69 9L3.65 9L4.79 5.92ZM6.14 7.79C6.52 7.79 6.82 7.48 6.82 7.11C6.82 6.74 6.52 6.44 6.14 6.44C5.77 6.44 5.46 6.74 5.46 7.11C5.46 7.48 5.77 7.79 6.14 7.79Z" />
		</g>
	</g>
</svg>