<svg xmlns="http://www.w3.org/2000/svg" viewBox="0 0 17 16" width="17" height="16">
	<style>
		tspan { white-space:pre }
		.shp0 { fill: #ffffff } 
	</style>
	<g id="Partners">
		<g id="Partner 4">
			<path id="Shape 170" class="shp0" d="M16.45 0.72C16.4 0.68 16.33 0.67 16.28 0.7L0.6 8.63C0.55 8.66 0.51 8.73 0.52 8.79C0.52 8.85 0.57 8.91 0.63 8.93L5.59 10.49C5.64 10.51 5.7 10.5 5.75 10.46L13.29 4.07L7.5 10.86C7.46 10.91 7.45 10.96 7.46 11.01C7.48 11.06 7.52 11.1 7.57 11.12L13.39 12.88C13.41 12.88 13.43 12.88 13.44 12.88C13.47 12.88 13.5 12.88 13.52 12.86C13.56 12.84 13.59 12.8 13.6 12.76L16.51 0.88C16.52 0.82 16.5 0.75 16.45 0.72ZM9.28 12.86L7.67 12.37C7.62 12.35 7.56 12.36 7.52 12.39C7.48 12.42 7.46 12.47 7.46 12.52L7.46 15.53C7.46 15.6 7.51 15.66 7.57 15.68C7.59 15.68 7.6 15.69 7.62 15.69C7.67 15.69 7.73 15.66 7.76 15.61L9.36 13.09C9.39 13.05 9.4 13 9.38 12.95C9.36 12.91 9.32 12.87 9.28 12.86Z" />
		</g>
	</g>
</svg>