<svg xmlns="http://www.w3.org/2000/svg" viewBox="0 0 17 17" width="17" height="17">
	<style>
		tspan { white-space:pre }
		.shp0 { fill: #ffffff } 
	</style>
	<g id="Partners">
		<g id="Partner 1">
			<path id="Shape 128" class="shp0" d="M15.62 4.15L9.94 4.15L12.18 1.47C12.21 1.47 12.24 1.49 12.28 1.49C12.65 1.49 12.95 1.19 12.95 0.82C12.95 0.45 12.65 0.15 12.28 0.15C11.91 0.15 11.61 0.45 11.61 0.82C11.61 0.9 11.63 0.98 11.66 1.05L9.07 4.15L8.82 4.15L6.23 1.05C6.26 0.98 6.28 0.9 6.28 0.82C6.28 0.45 5.98 0.15 5.61 0.15C5.24 0.15 4.94 0.45 4.94 0.82C4.94 1.19 5.24 1.49 5.61 1.49C5.65 1.49 5.68 1.47 5.71 1.47L7.96 4.15L2.28 4.15C1.54 4.15 0.94 4.75 0.94 5.48L0.94 14.8C0.94 15.53 1.54 16.13 2.28 16.13L15.62 16.13C16.35 16.13 16.95 15.53 16.95 14.8L16.95 5.48C16.95 4.75 16.35 4.15 15.62 4.15ZM12.95 13.47C12.95 14.2 12.35 14.8 11.61 14.8L3.61 14.8C2.87 14.8 2.28 14.2 2.28 13.47L2.28 6.81C2.28 6.08 2.87 5.48 3.61 5.48L11.61 5.48C12.35 5.48 12.95 6.08 12.95 6.81L12.95 13.47ZM14.91 7.52C14.39 7.52 13.96 7.09 13.96 6.57C13.96 6.04 14.39 5.62 14.91 5.62C15.44 5.62 15.87 6.04 15.87 6.57C15.87 7.09 15.44 7.52 14.91 7.52Z" />
		</g>
	</g>
</svg>