<svg xmlns="http://www.w3.org/2000/svg" viewBox="0 0 17 17" width="17" height="17">
	<style>
		tspan { white-space:pre }
		.shp0 { fill: #ffffff } 
	</style>
	<g id="Partners">
		<g id="Partner 3">
			<path id="Shape 153" class="shp0" d="M14.27 14.43C13.67 14.39 12.98 14.35 12.23 14.33C12.91 13.74 13.49 12.97 13.91 12.08C14.11 12.29 14.37 12.44 14.66 12.51C14.78 12.54 14.91 12.56 15.04 12.56C15.33 12.56 15.62 12.48 15.87 12.32C16.24 12.1 16.5 11.74 16.6 11.32C16.7 10.9 16.63 10.46 16.41 10.1C16.03 9.48 15.31 9.21 14.65 9.37C14.68 9.08 14.7 8.79 14.7 8.49C14.7 8.18 14.45 7.93 14.14 7.93L3.79 7.93C3.48 7.93 3.23 8.18 3.23 8.49C3.23 10.91 4.21 13.04 5.69 14.33C4.95 14.35 4.26 14.39 3.66 14.43C1.57 14.58 0.96 14.72 0.96 15.36C0.96 16.01 1.57 16.15 3.66 16.3C5.08 16.4 6.96 16.45 8.97 16.45C10.97 16.45 12.85 16.4 14.27 16.3C16.36 16.15 16.97 16.01 16.97 15.36C16.97 14.72 16.36 14.58 14.27 14.43ZM14.54 10.14C14.54 10.13 14.55 10.13 14.55 10.13C14.99 9.86 15.57 10 15.84 10.45C15.97 10.66 16 10.91 15.95 11.16C15.89 11.4 15.74 11.61 15.52 11.74C15.31 11.87 15.06 11.91 14.82 11.85C14.57 11.79 14.37 11.64 14.24 11.43C14.23 11.41 14.21 11.4 14.2 11.38C14.34 10.99 14.45 10.57 14.54 10.14ZM4.37 9.06L13.56 9.06C13.34 12.1 11.36 14.48 8.97 14.48C6.57 14.48 4.59 12.1 4.37 9.06ZM7.93 6.78L7.97 6.78C8.1 6.78 8.24 6.71 8.32 6.6C8.42 6.48 8.44 6.32 8.39 6.17C8.38 6.16 7.96 4.92 8.51 3.88C9.1 2.89 9.3 2.09 9.08 1.51C8.89 0.99 8.47 0.85 8.42 0.84C8.18 0.77 7.93 0.91 7.86 1.14C7.79 1.38 7.93 1.64 8.14 1.7C8.15 1.7 8.21 1.73 8.24 1.83C8.29 1.97 8.35 2.4 7.76 3.39L7.74 3.42C7.69 3.5 7.64 3.58 7.59 3.66C6.91 4.71 6.71 5.54 6.98 6.12C7.21 6.59 7.68 6.76 7.93 6.78ZM10.31 6.86L10.35 6.86C10.47 6.86 10.6 6.8 10.68 6.7C10.77 6.58 10.79 6.43 10.74 6.29C10.74 6.29 10.5 5.58 10.81 5.01C11.2 4.35 11.32 3.84 11.17 3.43C11.03 3.05 10.73 2.95 10.66 2.93C10.45 2.86 10.2 3 10.14 3.21C10.11 3.32 10.12 3.44 10.17 3.54C10.23 3.64 10.32 3.71 10.42 3.74C10.4 3.73 10.38 3.73 10.38 3.73C10.39 3.75 10.45 3.96 10.1 4.55L10.07 4.59C10.05 4.63 10.02 4.67 9.99 4.72C9.54 5.42 9.41 5.96 9.61 6.38C9.77 6.7 10.08 6.84 10.31 6.86Z" />
		</g>
	</g>
</svg>